grf
version=1
nRows=9
nColumns=37
inDegrees=no
endheader
time	ground_force_1_vx	ground_force_1_vy	ground_force_1_vz	ground_force_1_px	ground_force_1_py	ground_force_1_pz	ground_moment_1_mx	ground_moment_1_my	ground_moment_1_mz	ground_force_2_vx	ground_force_2_vy	ground_force_2_vz	ground_force_2_px	ground_force_2_py	ground_force_2_pz	ground_moment_2_mx	ground_moment_2_my	ground_moment_2_mz	ground_force_3_vx	ground_force_3_vy	ground_force_3_vz	ground_force_3_px	ground_force_3_py	ground_force_3_pz	ground_moment_3_mx	ground_moment_3_my	ground_moment_3_mz	ground_force_4_vx	ground_force_4_vy	ground_force_4_vz	ground_force_4_px	ground_force_4_py	ground_force_4_pz	ground_moment_4_mx	ground_moment_4_my	ground_moment_4_mz
      3.42000000	      0.00000000	     -0.00000000	      0.00000000	      0.00000000	      0.00000000	      0.00000000	      0.00000000	      0.00000000	      0.00000000	     -1.06477451	      4.73397779	   -300.49349976	   -338.67880504	  -1075.40101635	      0.00000000	      0.00000000	     -0.00000000	   3631.50417231	      0.27087496	     -8.07907298	   -272.44223022	   -333.52847240	   -758.35372790	      0.00000000	      0.00000000	     -0.00000000	  -4088.72410209	      0.00000000	     -0.00000000	      0.00000000	      0.00000000	      0.00000000	      0.00000000	      0.00000000	      0.00000000	      0.00000000
      3.43000000	      0.00000000	     -0.00000000	      0.00000000	      0.00000000	      0.00000000	      0.00000000	      0.00000000	      0.00000000	      0.00000000	     -1.64726496	      4.74945259	   -297.50347900	   -340.16636327	  -1075.63250065	      0.00000000	      0.00000000	      0.00000000	   3585.68331656	      0.49053252	     -7.75671725	   -270.18173218	   -333.30965979	   -758.30301624	      0.00000000	      0.00000000	     -0.00000000	  -4016.28571289	      0.00000000	     -0.00000000	      0.00000000	      0.00000000	      0.00000000	      0.00000000	      0.00000000	      0.00000000	      0.00000000
      3.44000000	      0.00000000	     -0.00000000	      0.00000000	      0.00000000	      0.00000000	      0.00000000	      0.00000000	      0.00000000	      0.00000000	     -2.27839088	      5.02335882	   -293.32989502	   -340.32439512	  -1074.90567711	      0.00000000	      0.00000000	      0.00000000	   3871.42571508	      0.11426043	     -7.94895173	   -266.52700806	   -334.66795992	   -759.09376025	      0.00000000	      0.00000000	     -0.00000000	  -3963.52222811	      0.00000000	     -0.00000000	      0.00000000	      0.00000000	      0.00000000	      0.00000000	      0.00000000	      0.00000000	      0.00000000
      3.45000000	      0.00000000	     -0.00000000	      0.00000000	      0.00000000	      0.00000000	      0.00000000	      0.00000000	      0.00000000	      0.00000000	     -3.73068380	      4.99903059	   -294.07098389	   -340.52979841	  -1076.04175312	      0.00000000	      0.00000000	      0.00000000	   3732.92947456	     -0.03180957	     -8.39056015	   -263.19772339	   -334.69692117	   -758.84990913	      0.00000000	      0.00000000	     -0.00000000	  -3967.11520895	      0.00000000	     -0.00000000	      0.00000000	      0.00000000	      0.00000000	      0.00000000	      0.00000000	      0.00000000	      0.00000000
      3.46000000	      0.00000000	     -0.00000000	      0.00000000	      0.00000000	      0.00000000	      0.00000000	      0.00000000	      0.00000000	      0.00000000	     -4.87400103	      5.68031120	   -293.04412842	   -341.06699714	  -1076.36642093	      0.00000000	      0.00000000	      0.00000000	   3860.95116521	     -0.45958934	     -8.96091934	   -258.78448486	   -334.64608493	   -756.59403908	      0.00000000	      0.00000000	     -0.00000000	  -3944.85127172	      0.00000000	     -0.00000000	      0.00000000	      0.00000000	      0.00000000	      0.00000000	      0.00000000	      0.00000000	      0.00000000
      3.47000000	      0.00000000	     -0.00000000	      0.00000000	      0.00000000	      0.00000000	      0.00000000	      0.00000000	      0.00000000	      0.00000000	     -5.48188400	      6.87029886	   -289.57879639	   -341.47076664	  -1075.78483385	      0.00000000	      0.00000000	      0.00000000	   3825.86982311	     -1.20968232	     -9.21758355	   -252.02395630	   -333.66921276	   -758.56977631	      0.00000000	      0.00000000	     -0.00000000	  -3734.58836612	      0.00000000	     -0.00000000	      0.00000000	      0.00000000	      0.00000000	      0.00000000	      0.00000000	      0.00000000	      0.00000000
      3.48000000	      0.00000000	     -0.00000000	      0.00000000	      0.00000000	      0.00000000	      0.00000000	      0.00000000	      0.00000000	      0.00000000	     -5.47484827	      6.57916117	   -287.26599121	   -342.21322807	  -1075.10018855	      0.00000000	      0.00000000	      0.00000000	   3885.81958783	     -1.26566872	     -9.22524537	   -250.24835205	   -334.53763881	   -757.51675731	      0.00000000	      0.00000000	     -0.00000000	  -3705.41337269	      0.00000000	     -0.00000000	      0.00000000	      0.00000000	      0.00000000	      0.00000000	      0.00000000	      0.00000000	      0.00000000
      3.49000000	      0.00000000	     -0.00000000	      0.00000000	      0.00000000	      0.00000000	      0.00000000	      0.00000000	      0.00000000	      0.00000000	     -5.08499908	      6.21641445	   -286.65051270	   -341.82324387	  -1076.46346308	      0.00000000	      0.00000000	      0.00000000	   3698.61808649	     -0.10507485	     -8.19076156	   -250.56204224	   -334.89403226	   -756.04342836	      0.00000000	      0.00000000	     -0.00000000	  -3837.37803625	      0.00000000	     -0.00000000	      0.00000000	      0.00000000	      0.00000000	      0.00000000	      0.00000000	      0.00000000	      0.00000000
      3.50000000	      0.00000000	     -0.00000000	      0.00000000	      0.00000000	      0.00000000	      0.00000000	      0.00000000	      0.00000000	      0.00000000	     -3.76905251	      5.88260651	   -285.41409302	   -343.64650671	  -1076.34656538	      0.00000000	      0.00000000	      0.00000000	   3746.98216467	      1.54106936	     -7.18689884	   -252.02255249	   -336.80099085	   -758.47660624	      0.00000000	      0.00000000	     -0.00000000	  -3842.20404861	      0.00000000	     -0.00000000	      0.00000000	      0.00000000	      0.00000000	      0.00000000	      0.00000000	      0.00000000	      0.00000000
